<?xml version="1.0" encoding="UTF-8"?>
<svg xmlns="http://www.w3.org/2000/svg" viewBox="30 20 160 180">
  <defs>
    <style>
      .st0 { fill: #de5826; }
      .st1 { fill: #072030; }
    </style>
  </defs>
  <!-- Orange dot above the i -->
  <circle class="st0" cx="168.2" cy="37.8" r="13.4"/>
  <!-- Large M shape (dark) -->
  <path class="st1" d="M179.9,60.6h-24c-.8,0-1.6.5-2,1.2l-44.8,82.8c-.2.4-.7.4-1,0L63.3,61.8c-.4-.7-1.2-1.2-2-1.2h-24.7c-.3,0-.5.2-.5.5v129.9c0,.3.2.5.5.5h25.6c.3,0,.5-.2.5-.5v-79.2c0-.6.8-.8,1-.3l37.1,68.6c.5.9,1.4,1.4,2.4,1.4h10.8c1,0,1.9-.6,2.4-1.4l.2-.4h0s64-118.1,64-118.1c.3-.5,0-1.1-.7-1.1Z"/>
  <!-- Orange stripes (i stem) -->
  <path class="st0" d="M181.2,124.8h0c0,0,0-.2,0-.3v-45.2c0-.6-.8-.8-1-.3l-25.6,47.2c0,0,0,.2,0,.3v45.2c0,.6.8.8,1,.3l25.6-47.2h0Z"/>
  <path class="st0" d="M181.2,158.3h0c0,0,0-.2,0-.3v-14.5c0-.6-.8-.8-1-.3l-25.6,47.2c0,0,0,.2,0,.3v.4c0,.3.2.5.5.5h7.7c.2,0,.4-.1.5-.3l17.9-33h0Z"/>
  <path class="st0" d="M181.2,191.1v-14.1c0-.6-.8-.8-1-.3l-7.6,14.1c-.2.4,0,.8.5.8h7.6c.3,0,.5-.2.5-.5Z"/>
</svg>
