<svg xmlns="http://www.w3.org/2000/svg" xmlns:xlink="http://www.w3.org/1999/xlink" width="500" zoomAndPan="magnify" viewBox="0 0 375 374.999991" height="500" preserveAspectRatio="xMidYMid meet" version="1.0"><defs><clipPath id="87a064bedf"><path d="M 220.019531 185.222656 L 375 185.222656 L 375 298 L 220.019531 298 Z M 220.019531 185.222656 " clip-rule="nonzero"/></clipPath><clipPath id="4cdc713abd"><path d="M 138.5 38.503906 L 375 38.503906 L 375 93.964844 L 138.5 93.964844 Z M 138.5 38.503906 " clip-rule="nonzero"/></clipPath><clipPath id="355402b82e"><path d="M 0 0 L 150.175781 0 L 150.175781 128 L 0 128 Z M 0 0 " clip-rule="nonzero"/></clipPath><clipPath id="7fe56859fc"><path d="M 68.390625 34.648438 L 299.9375 34.648438 L 299.9375 259.957031 L 68.390625 259.957031 Z M 68.390625 34.648438 " clip-rule="nonzero"/></clipPath><clipPath id="347678c761"><path d="M 174 168 L 227 168 L 227 219 L 174 219 Z M 174 168 " clip-rule="nonzero"/></clipPath><clipPath id="4b5d98796b"><path d="M 174.503906 214.152344 L 223.398438 167.566406 L 229.222656 173.675781 L 180.328125 220.261719 Z M 174.503906 214.152344 " clip-rule="nonzero"/></clipPath><clipPath id="71f3665edd"><path d="M 174.503906 214.152344 L 222.769531 168.164062 L 226.910156 172.507812 L 178.644531 218.496094 Z M 174.503906 214.152344 " clip-rule="nonzero"/></clipPath><clipPath id="1f4313c624"><path d="M 236.421875 115.222656 L 263.199219 115.222656 L 263.199219 241.574219 L 236.421875 241.574219 Z M 236.421875 115.222656 " clip-rule="nonzero"/></clipPath><clipPath id="6a2a656936"><path d="M 169 102 L 263 102 L 263 243 L 169 243 Z M 169 102 " clip-rule="nonzero"/></clipPath><clipPath id="44dc2b2535"><path d="M 240.246094 102.449219 L 264.832031 116.136719 L 193.675781 243.992188 L 169.085938 230.304688 Z M 240.246094 102.449219 " clip-rule="nonzero"/></clipPath><clipPath id="78f0c37001"><path d="M 240.246094 102.449219 L 263.195312 115.222656 L 192.535156 242.1875 L 169.582031 229.414062 Z M 240.246094 102.449219 " clip-rule="nonzero"/></clipPath><clipPath id="ab0f12dd66"><path d="M 127 113 L 203 113 L 203 221 L 127 221 Z M 127 113 " clip-rule="nonzero"/></clipPath><clipPath id="9b282fb4e1"><path d="M 127.425781 125.171875 L 152.113281 111.664062 L 204.789062 207.9375 L 180.101562 221.445312 Z M 127.425781 125.171875 " clip-rule="nonzero"/></clipPath><clipPath id="c79d145d46"><path d="M 127.425781 125.171875 L 150.664062 112.457031 L 203.042969 208.1875 L 179.804688 220.902344 Z M 127.425781 125.171875 " clip-rule="nonzero"/></clipPath><clipPath id="7ca69ed6b0"><path d="M 124.023438 115.222656 L 150 115.222656 L 150 241.574219 L 124.023438 241.574219 Z M 124.023438 115.222656 " clip-rule="nonzero"/></clipPath><clipPath id="e137e9817a"><path d="M 156 204 L 228 204 L 228 311 L 156 311 Z M 156 204 " clip-rule="nonzero"/></clipPath><clipPath id="d5979c00e4"><path d="M 227.234375 302.339844 L 210.152344 312.152344 L 152.683594 212.113281 L 169.765625 202.300781 Z M 227.234375 302.339844 " clip-rule="nonzero"/></clipPath><clipPath id="f0b6a41a3f"><path d="M 227.234375 302.339844 L 211.492188 311.382812 L 154.960938 212.96875 L 170.699219 203.929688 Z M 227.234375 302.339844 " clip-rule="nonzero"/></clipPath><clipPath id="7f5708a0c5"><path d="M 174 184 L 232 184 L 232 288 L 174 288 Z M 174 184 " clip-rule="nonzero"/></clipPath><clipPath id="c7c6805558"><path d="M 179.84375 287.070312 L 172.339844 283.207031 L 225.15625 180.636719 L 232.664062 184.5 Z M 179.84375 287.070312 " clip-rule="nonzero"/></clipPath><clipPath id="e403a5ee0a"><path d="M 179.84375 287.070312 L 174.507812 284.320312 L 226.46875 183.417969 L 231.804688 186.167969 Z M 179.84375 287.070312 " clip-rule="nonzero"/></clipPath><clipPath id="d7ea6531c4"><path d="M 332 199 L 366 199 L 366 243 L 332 243 Z M 332 199 " clip-rule="nonzero"/></clipPath><clipPath id="6664a7cc05"><path d="M 346.898438 199.375 L 367.195312 236.382812 L 352.394531 244.503906 L 332.097656 207.496094 Z M 346.898438 199.375 " clip-rule="nonzero"/></clipPath><clipPath id="e0bab0f8eb"><path d="M 346.898438 199.375 L 366.21875 234.601562 L 351.921875 242.441406 L 332.605469 207.214844 Z M 346.898438 199.375 " clip-rule="nonzero"/></clipPath><clipPath id="39f832465f"><path d="M 162.878906 229.910156 L 231 229.910156 L 231 260.949219 L 162.878906 260.949219 Z M 162.878906 229.910156 " clip-rule="nonzero"/></clipPath><clipPath id="13a55a9182"><path d="M 121.121094 239.429688 L 288 239.429688 L 288 245.433594 L 121.121094 245.433594 Z M 121.121094 239.429688 " clip-rule="nonzero"/></clipPath><clipPath id="d1c1785c07"><path d="M 100.472656 106.882812 L 375 106.882812 L 375 112.882812 L 100.472656 112.882812 Z M 100.472656 106.882812 " clip-rule="nonzero"/></clipPath><clipPath id="739e76ee6f"><path d="M 100.472656 101.640625 L 310.601562 101.640625 L 310.601562 115.214844 L 100.472656 115.214844 Z M 100.472656 101.640625 " clip-rule="nonzero"/></clipPath><clipPath id="2727ed720f"><path d="M 236.421875 83.886719 L 259.414062 83.886719 L 259.414062 106.882812 L 236.421875 106.882812 Z M 236.421875 83.886719 " clip-rule="nonzero"/></clipPath><clipPath id="d7d8506498"><path d="M 247.917969 83.886719 C 241.570312 83.886719 236.421875 89.035156 236.421875 95.382812 C 236.421875 101.734375 241.570312 106.882812 247.917969 106.882812 C 254.269531 106.882812 259.414062 101.734375 259.414062 95.382812 C 259.414062 89.035156 254.269531 83.886719 247.917969 83.886719 " clip-rule="nonzero"/></clipPath><clipPath id="b56bdc4cb4"><path d="M 242.707031 265.667969 L 375 265.667969 L 375 304.402344 L 242.707031 304.402344 Z M 242.707031 265.667969 " clip-rule="nonzero"/></clipPath><clipPath id="7dfb16615e"><path d="M 216.90625 244.835938 L 375 244.835938 L 375 317.511719 L 216.90625 317.511719 Z M 216.90625 244.835938 " clip-rule="nonzero"/></clipPath><clipPath id="68fb6ad843"><path d="M 0 84 L 124.03125 84 L 124.03125 346.175781 L 0 346.175781 Z M 0 84 " clip-rule="nonzero"/></clipPath></defs><rect x="-37.5" width="450" fill="#ffffff" y="-37.499999" height="449.999989" fill-opacity="1"/><rect x="-37.5" width="450" fill="#ffffff" y="-37.499999" height="449.999989" fill-opacity="1"/><rect x="-37.5" width="450" fill="#000000" y="-37.499999" height="449.999989" fill-opacity="1"/><g clip-path="url(#87a064bedf)"><path fill="#000000" d="M 220.019531 185.222656 L 599.898438 185.222656 L 599.898438 297.78125 L 220.019531 297.78125 Z M 220.019531 185.222656 " fill-opacity="1" fill-rule="nonzero"/></g><g clip-path="url(#4cdc713abd)"><path fill="#000000" d="M 138.5 38.503906 L 628.121094 38.503906 L 628.121094 94.785156 L 138.5 94.785156 Z M 138.5 38.503906 " fill-opacity="1" fill-rule="nonzero"/></g><g clip-path="url(#355402b82e)"><path fill="#000000" d="M -29.914062 -86.125 L 150.175781 -86.125 L 150.175781 127.730469 L -29.914062 127.730469 Z M -29.914062 -86.125 " fill-opacity="1" fill-rule="nonzero"/></g><g clip-path="url(#7fe56859fc)"><path fill="#000000" d="M 68.390625 34.648438 L 299.128906 34.648438 L 299.128906 259.761719 L 68.390625 259.761719 Z M 68.390625 34.648438 " fill-opacity="1" fill-rule="nonzero"/></g><g clip-path="url(#347678c761)"><g clip-path="url(#4b5d98796b)"><g clip-path="url(#71f3665edd)"><path fill="#ffffff" d="M 174.503906 214.152344 L 223.398438 167.566406 L 227.28125 171.640625 L 178.386719 218.226562 Z M 174.503906 214.152344 " fill-opacity="1" fill-rule="nonzero"/></g></g></g><path stroke-linecap="butt" transform="matrix(0.841885, -0.854597, 0.855292, 0.84257, 79.350681, 274.338323)" fill="none" stroke-linejoin="miter" d="M -0.000107075 1.499162 L 96.090297 1.50081 " stroke="#000000" stroke-width="3" stroke-opacity="1" stroke-miterlimit="4"/><path stroke-linecap="butt" transform="matrix(0.659751, -1.001916, 1.002731, 0.660288, 125.713575, 307.137695)" fill="none" stroke-linejoin="miter" d="M -0.0000487229 1.501107 L 96.091813 1.498981 " stroke="#000000" stroke-width="3" stroke-opacity="1" stroke-miterlimit="4"/><g clip-path="url(#1f4313c624)"><path fill="#df5500" d="M 236.421875 115.222656 L 264.558594 115.222656 L 264.558594 241.851562 L 236.421875 241.851562 Z M 236.421875 115.222656 " fill-opacity="1" fill-rule="nonzero"/></g><g clip-path="url(#6a2a656936)"><g clip-path="url(#44dc2b2535)"><g clip-path="url(#78f0c37001)"><path fill="#ffffff" d="M 240.246094 102.449219 L 262.375 114.765625 L 191.214844 242.621094 L 169.085938 230.304688 Z M 240.246094 102.449219 " fill-opacity="1" fill-rule="nonzero"/></g></g></g><g clip-path="url(#ab0f12dd66)"><g clip-path="url(#9b282fb4e1)"><g clip-path="url(#c79d145d46)"><path fill="#ffffff" d="M 127.425781 125.171875 L 149.644531 113.015625 L 202.320312 209.289062 L 180.101562 221.445312 Z M 127.425781 125.171875 " fill-opacity="1" fill-rule="nonzero"/></g></g></g><path stroke-linecap="butt" transform="matrix(0.873077, -0.823679, 0.82389, 0.873301, 197.00816, 316.107488)" fill="none" stroke-linejoin="miter" d="M 0.0001714 0.999795 L 183.05398 1.000056 " stroke="#000000" stroke-width="2" stroke-opacity="1" stroke-miterlimit="4"/><g clip-path="url(#7ca69ed6b0)"><path fill="#ffffff" d="M 124.023438 115.222656 L 149.351562 115.222656 L 149.351562 241.851562 L 124.023438 241.851562 Z M 124.023438 115.222656 " fill-opacity="1" fill-rule="nonzero"/></g><g clip-path="url(#e137e9817a)"><g clip-path="url(#d5979c00e4)"><g clip-path="url(#f0b6a41a3f)"><path fill="#000000" d="M 227.234375 302.339844 L 212.59375 310.75 L 156.527344 213.152344 L 171.167969 204.742188 Z M 227.234375 302.339844 " fill-opacity="1" fill-rule="nonzero"/></g></g></g><g clip-path="url(#7f5708a0c5)"><g clip-path="url(#c7c6805558)"><g clip-path="url(#e403a5ee0a)"><path fill="#000000" d="M 179.84375 287.070312 L 174.839844 284.492188 L 226.371094 184.425781 L 231.375 187.003906 Z M 179.84375 287.070312 " fill-opacity="1" fill-rule="nonzero"/></g></g></g><g clip-path="url(#d7ea6531c4)"><g clip-path="url(#6664a7cc05)"><g clip-path="url(#e0bab0f8eb)"><path fill="#000000" d="M 346.898438 199.375 L 365.84375 233.917969 L 351.039062 242.035156 L 332.097656 207.496094 Z M 346.898438 199.375 " fill-opacity="1" fill-rule="nonzero"/></g></g></g><g clip-path="url(#39f832465f)"><path fill="#000000" d="M 162.878906 260.949219 L 162.878906 229.996094 L 230.414062 229.996094 L 230.414062 260.949219 Z M 162.878906 260.949219 " fill-opacity="1" fill-rule="nonzero"/></g><g clip-path="url(#13a55a9182)"><path fill="#000000" d="M 121.121094 245.433594 L 121.121094 239.804688 L 287.144531 239.804688 L 287.144531 245.433594 Z M 121.121094 245.433594 " fill-opacity="1" fill-rule="nonzero"/></g><g clip-path="url(#d1c1785c07)"><path fill="#000000" d="M 100.472656 106.882812 L 418.445312 106.882812 L 418.445312 112.507812 L 100.472656 112.507812 Z M 100.472656 106.882812 " fill-opacity="1" fill-rule="nonzero"/></g><g clip-path="url(#739e76ee6f)"><path fill="#000000" d="M 100.472656 115.214844 L 100.472656 101.144531 L 311.515625 101.144531 L 311.515625 115.214844 Z M 100.472656 115.214844 " fill-opacity="1" fill-rule="nonzero"/></g><path stroke-linecap="butt" transform="matrix(0.612626, -1.026474, 1.03095, 0.615297, 216.903345, 280.28714)" fill="none" stroke-linejoin="miter" d="M -0.00084825 1.499969 L 86.384157 1.500138 " stroke="#000000" stroke-width="3" stroke-opacity="1" stroke-miterlimit="4"/><path stroke-linecap="butt" transform="matrix(0.566402, -1.058602, 1.058602, 0.566402, 199.621119, 231.141664)" fill="none" stroke-linejoin="miter" d="M 0.0000760858 1.501769 L 160.000749 1.498429 " stroke="#000000" stroke-width="3" stroke-opacity="1" stroke-miterlimit="4"/><g clip-path="url(#2727ed720f)"><g clip-path="url(#d7d8506498)"><path fill="#df5500" d="M 236.421875 83.886719 L 259.414062 83.886719 L 259.414062 106.882812 L 236.421875 106.882812 Z M 236.421875 83.886719 " fill-opacity="1" fill-rule="nonzero"/></g></g><path stroke-linecap="butt" transform="matrix(0.604528, -1.03297, 1.036198, 0.606417, 212.773467, 303.873789)" fill="none" stroke-linejoin="miter" d="M -0.000641324 0.999341 L 95.302431 0.99923 " stroke="#000000" stroke-width="2" stroke-opacity="1" stroke-miterlimit="4"/><g clip-path="url(#b56bdc4cb4)"><path fill="#000000" d="M 242.707031 265.667969 L 532.539062 265.667969 L 532.539062 305.0625 L 242.707031 305.0625 Z M 242.707031 265.667969 " fill-opacity="1" fill-rule="nonzero"/></g><g clip-path="url(#7dfb16615e)"><path fill="#000000" d="M 216.90625 244.835938 L 442.019531 244.835938 L 442.019531 318 L 216.90625 318 Z M 216.90625 244.835938 " fill-opacity="1" fill-rule="nonzero"/></g><g clip-path="url(#68fb6ad843)"><path fill="#000000" d="M -38.609375 346.175781 L -38.609375 84.480469 L 124.597656 84.480469 L 124.597656 346.175781 Z M -38.609375 346.175781 " fill-opacity="1" fill-rule="nonzero"/></g></svg>